<svg width="5" height="10" viewBox="0 0 5 10" fill="none" xmlns="http://www.w3.org/2000/svg">
<path d="M3.89166 9.33417C3.79206 9.33451 3.69366 9.31253 3.60367 9.26984C3.51368 9.22715 3.4344 9.16485 3.37166 9.0875L0.151659 5.0875C0.0536042 4.96821 0 4.81858 0 4.66417C0 4.50975 0.0536042 4.36012 0.151659 4.24083L3.48499 0.240835C3.59815 0.10469 3.76076 0.0190742 3.93704 0.002821C4.11333 -0.0134322 4.28885 0.0410091 4.42499 0.154168C4.56114 0.267327 4.64675 0.429935 4.66301 0.606219C4.67926 0.782503 4.62482 0.958024 4.51166 1.09417L1.53166 4.6675L4.41166 8.24084C4.49318 8.33869 4.54497 8.45785 4.56088 8.58422C4.5768 8.71058 4.55619 8.83887 4.50149 8.95389C4.44679 9.0689 4.36028 9.16584 4.25221 9.23324C4.14413 9.30063 4.01901 9.33566 3.89166 9.33417Z" fill="#4C4C4C"/>
</svg>
