<svg width="5" height="10" viewBox="0 0 5 10" fill="none" xmlns="http://www.w3.org/2000/svg">
<path d="M0.66784 9.35282C0.512072 9.35313 0.361115 9.29888 0.241173 9.19949C0.173668 9.14353 0.117866 9.07479 0.0769651 8.99723C0.0360637 8.91966 0.0108662 8.83479 0.00281562 8.74747C-0.00523496 8.66016 0.00401972 8.57211 0.0300494 8.48837C0.056079 8.40464 0.0983718 8.32686 0.154506 8.25949L3.14117 4.68616L0.261174 1.10616C0.205796 1.03797 0.164442 0.959502 0.139487 0.875276C0.114533 0.79105 0.10647 0.702722 0.115763 0.61537C0.125056 0.528018 0.15152 0.443363 0.193636 0.366272C0.235752 0.289181 0.292689 0.221173 0.361173 0.166158C0.430151 0.105467 0.510928 0.0596889 0.598436 0.0316962C0.685944 0.00370351 0.778294 -0.00589896 0.86969 0.00349097C0.961085 0.0128809 1.04955 0.0410607 1.12954 0.0862619C1.20953 0.131463 1.27931 0.19271 1.33451 0.266158L4.55451 4.26616C4.65256 4.38545 4.70616 4.53508 4.70616 4.68949C4.70616 4.84391 4.65256 4.99354 4.55451 5.11282L1.22117 9.11282C1.15429 9.1935 1.06934 9.25728 0.9732 9.29898C0.87706 9.34068 0.772444 9.35913 0.66784 9.35282Z" fill="white"/>
</svg>
