<svg width="24" height="24" viewBox="0 0 24 24" fill="none" xmlns="http://www.w3.org/2000/svg">
<g clip-path="url(#clip0_310_5378)">
<path d="M20.9995 3.99996C20.9891 3.9081 20.9689 3.81759 20.9395 3.72996V3.63996C20.8915 3.52867 20.8238 3.42702 20.7395 3.33996C20.6546 3.26023 20.5565 3.19593 20.4495 3.14996H20.3595C20.2673 3.07957 20.1619 3.02855 20.0495 2.99996H19.9995C19.9 2.98488 19.7989 2.98488 19.6995 2.99996L1.69947 8.99996C1.4994 9.06572 1.3252 9.19296 1.2017 9.36355C1.07821 9.53414 1.01172 9.73936 1.01172 9.94996C1.01172 10.1606 1.07821 10.3658 1.2017 10.5364C1.3252 10.707 1.4994 10.8342 1.69947 10.9L10.2295 13.74L13.0695 22.27C13.1352 22.47 13.2625 22.6442 13.4331 22.7677C13.6036 22.8912 13.8089 22.9577 14.0195 22.9577C14.2301 22.9577 14.4353 22.8912 14.6059 22.7677C14.7765 22.6442 14.9037 22.47 14.9695 22.27L20.9695 4.26996C20.9917 4.18175 21.0018 4.09091 20.9995 3.99996ZM16.2995 6.28996L10.7295 11.86L5.15947 9.99996L16.2995 6.28996ZM13.9995 18.84L12.1395 13.27L17.7095 7.69996L13.9995 18.84Z" fill="white"/>
</g>
<defs>
<clipPath id="clip0_310_5378">
<rect width="24" height="24" fill="white"/>
</clipPath>
</defs>
</svg>
