<svg width="24" height="24" viewBox="0 0 24 24" fill="none" xmlns="http://www.w3.org/2000/svg">
<g clip-path="url(#clip0_72252_2803)">
<path d="M12 13C12.5523 13 13 12.5523 13 12C13 11.4477 12.5523 11 12 11C11.4477 11 11 11.4477 11 12C11 12.5523 11.4477 13 12 13Z" fill="white"/>
<path d="M16 13C16.5523 13 17 12.5523 17 12C17 11.4477 16.5523 11 16 11C15.4477 11 15 11.4477 15 12C15 12.5523 15.4477 13 16 13Z" fill="white"/>
<path d="M8 13C8.55228 13 9 12.5523 9 12C9 11.4477 8.55228 11 8 11C7.44772 11 7 11.4477 7 12C7 12.5523 7.44772 13 8 13Z" fill="white"/>
<path d="M19.0706 4.92999C17.4298 3.27849 15.2642 2.2512 12.9472 2.02523C10.6302 1.79926 8.30696 2.38877 6.37799 3.69212C4.44903 4.99548 3.03524 6.931 2.38037 9.165C1.7255 11.399 1.87058 13.7915 2.79061 15.93C2.8865 16.1288 2.91796 16.3525 2.88061 16.57L2.00061 20.8C1.9667 20.9622 1.97363 21.1302 2.02075 21.2891C2.06788 21.4479 2.15374 21.5925 2.27061 21.71C2.36641 21.8051 2.48048 21.8798 2.60594 21.9297C2.7314 21.9795 2.86565 22.0034 3.00061 22H3.20061L7.48061 21.14C7.69814 21.1138 7.91873 21.1449 8.12061 21.23C10.2591 22.15 12.6516 22.2951 14.8856 21.6402C17.1196 20.9854 19.0551 19.5716 20.3585 17.6426C21.6618 15.7136 22.2513 13.3904 22.0254 11.0734C21.7994 8.75635 20.7721 6.59078 19.1206 4.94999L19.0706 4.92999ZM19.9006 13.29C19.7051 14.484 19.2413 15.6181 18.5442 16.6069C17.847 17.5957 16.9347 18.4136 15.8758 18.9988C14.8169 19.5841 13.639 19.9216 12.4308 19.9859C11.2227 20.0502 10.0156 19.8396 8.90061 19.37C8.50515 19.2018 8.08034 19.1134 7.65061 19.11C7.46289 19.1113 7.27559 19.128 7.09061 19.16L4.27061 19.73L4.84061 16.91C4.95413 16.2993 4.88095 15.6685 4.63061 15.1C4.161 13.985 3.95041 12.7779 4.0147 11.5698C4.07899 10.3616 4.41647 9.18374 5.00175 8.12484C5.58703 7.06595 6.40486 6.15359 7.3937 5.45644C8.38254 4.75929 9.51663 4.29551 10.7106 4.09999C11.9639 3.89431 13.2481 3.98997 14.4571 4.37905C15.6661 4.76814 16.765 5.43948 17.6631 6.33753C18.5611 7.23558 19.2325 8.33454 19.6215 9.54351C20.0106 10.7525 20.1063 12.0367 19.9006 13.29Z" fill="white"/>
</g>
<defs>
<clipPath id="clip0_72252_2803">
<rect width="24" height="24" fill="white"/>
</clipPath>
</defs>
</svg>
